<?xml version="1.0" standalone="no"?>
<!DOCTYPE svg PUBLIC "-//W3C//DTD SVG 20010904//EN"
 "http://www.w3.org/TR/2001/REC-SVG-20010904/DTD/svg10.dtd">
<svg version="1.0" xmlns="http://www.w3.org/2000/svg"
 width="2483.000000pt" height="2482.000000pt" viewBox="0 0 2483.000000 2482.000000"
 preserveAspectRatio="xMidYMid meet">

<g transform="translate(0.000000,2482.000000) scale(0.100000,-0.100000)"
fill="#000000" stroke="none">
<path d="M12953 24654 c-46 -23 -126 -111 -159 -175 -65 -128 -15 -275 130
-381 l39 -28 206 0 c2133 -2 4514 -932 6722 -2625 614 -471 1209 -1033 1708
-1615 199 -232 429 -523 549 -695 23 -33 63 -87 88 -120 25 -33 110 -157 189
-275 1120 -1685 1805 -3663 1974 -5700 43 -510 45 -567 45 -1085 0 -617 -18
-934 -84 -1436 -20 -155 -157 -896 -186 -1005 -127 -491 -216 -802 -292 -1024
-4 -11 -2 -12 6 -5 29 27 102 237 227 649 114 379 158 551 224 879 125 613
188 1107 221 1722 13 244 13 873 0 1125 -109 2104 -697 4067 -1743 5820 -663
1110 -1499 2091 -2492 2926 -1811 1522 -3894 2566 -5820 2918 -300 55 -697
103 -1030 126 -366 24 -478 25 -522 4z"/>
<path d="M9570 24130 c-360 -73 -908 -224 -1220 -335 -1001 -356 -1770 -740
-2616 -1306 -1539 -1030 -2863 -2421 -3786 -3979 -791 -1334 -1281 -2693
-1518 -4210 -116 -748 -169 -1446 -170 -2250 0 -474 10 -748 40 -1140 130
-1675 567 -3173 1283 -4393 45 -77 94 -150 110 -163 42 -35 101 -49 207 -49
85 0 100 3 140 27 71 41 119 119 140 225 17 86 8 118 -62 225 -144 219 -396
692 -531 998 -504 1140 -784 2396 -869 3890 -16 279 -15 1139 1 1460 66 1323
290 2462 707 3596 347 945 842 1873 1467 2751 1084 1522 2587 2834 4258 3720
231 122 582 289 759 361 582 236 1279 465 1715 563 77 17 144 35 150 40 14 13
-1 11 -205 -31z"/>
<path d="M11638 24028 c-47 -51 -108 -106 -136 -123 -29 -16 -52 -35 -52 -41
0 -6 34 -70 75 -142 51 -89 80 -152 90 -194 7 -35 23 -241 35 -458 32 -596 38
-633 109 -693 56 -46 126 -60 280 -54 132 4 211 20 218 43 2 7 -31 20 -81 33
-226 56 -306 118 -335 261 -7 30 -23 248 -36 485 -40 692 -56 949 -60 963 -3
6 -8 12 -13 12 -4 0 -47 -42 -94 -92z"/>
<path d="M10961 23982 c-58 -76 -163 -182 -182 -182 -22 0 -4 -38 67 -145 121
-185 115 -160 182 -670 53 -398 58 -454 47 -482 -17 -41 -61 -63 -125 -63 -29
0 -97 -9 -151 -20 -55 -11 -106 -17 -113 -13 -19 11 -241 296 -271 347 -13 23
-27 62 -30 89 -4 26 -13 47 -19 47 -15 0 -134 -176 -151 -226 -19 -54 -18
-112 4 -160 10 -22 68 -105 128 -185 60 -79 115 -154 121 -166 14 -26 16 -70
3 -77 -5 -3 -51 22 -102 56 -128 83 -234 138 -269 138 -16 0 -64 -11 -107 -24
-43 -14 -161 -48 -263 -76 -252 -69 -408 -119 -648 -206 -111 -40 -209 -71
-217 -68 -8 4 -45 -7 -82 -22 l-66 -28 -21 29 c-47 65 -98 114 -238 227 -188
152 -230 194 -263 258 -22 44 -29 50 -40 39 -7 -8 -70 -170 -139 -361 -132
-365 -141 -402 -112 -473 8 -18 26 -41 41 -51 14 -9 110 -47 213 -84 274 -98
292 -110 276 -177 -13 -56 -176 -460 -209 -518 -18 -33 -55 -85 -81 -115 -42
-49 -45 -55 -26 -58 50 -8 190 89 245 169 24 36 82 174 176 419 76 201 146
382 154 403 14 31 28 43 89 72 40 19 85 35 101 35 15 0 44 7 65 16 177 75 568
203 912 299 312 87 311 87 397 40 40 -23 98 -68 141 -112 40 -40 76 -73 80
-73 5 0 195 269 231 328 12 20 64 31 306 62 303 39 318 43 373 93 33 30 27 45
-23 58 -54 14 -88 45 -103 96 -6 21 -56 380 -112 798 -55 418 -103 768 -106
778 -3 9 -9 17 -14 17 -5 0 -36 -35 -69 -78z m-2553 -2160 c67 -51 129 -103
138 -116 17 -27 20 -65 10 -113 -9 -38 -25 -42 -52 -12 -10 12 -80 68 -154
124 -74 57 -143 117 -153 135 -19 32 -18 70 4 128 l10 26 37 -40 c21 -22 92
-81 160 -132z"/>
<path d="M13135 23761 c-16 -10 -54 -40 -83 -66 -67 -60 -67 -84 -2 -132 25
-18 66 -51 92 -73 25 -22 51 -40 56 -40 16 0 82 112 82 138 0 23 -96 192 -109
192 -3 0 -19 -8 -36 -19z"/>
<path d="M13455 23723 c-81 -58 -115 -94 -115 -123 0 -27 27 -58 69 -80 14 -7
47 -33 73 -58 l48 -45 25 23 c28 26 65 97 65 124 0 17 -95 182 -109 191 -4 2
-29 -13 -56 -32z"/>
<path d="M14463 23704 c-10 -4 -9 -12 2 -34 18 -35 20 -111 3 -128 -7 -7 -25
-12 -40 -12 -23 0 -33 9 -59 55 -37 65 -62 85 -106 85 -39 0 -39 -3 -13 -70
11 -28 20 -60 20 -70 0 -24 -34 -60 -56 -60 -8 0 -39 22 -67 49 -29 26 -62 53
-74 60 -28 14 -83 14 -83 0 0 -24 94 -191 119 -210 35 -28 72 -22 276 40 88
28 183 56 210 64 57 15 56 9 13 120 -17 45 -39 84 -52 92 -25 17 -75 27 -93
19z"/>
<path d="M13205 23327 c-50 -40 -91 -81 -93 -92 -1 -11 11 -51 27 -90 23 -55
27 -73 18 -84 -7 -8 -64 -59 -127 -114 -150 -130 -177 -161 -196 -226 -17 -58
-15 -92 13 -202 16 -66 16 -67 -6 -103 -13 -20 -21 -43 -18 -50 7 -18 -39 -13
797 -76 155 -12 277 -33 320 -55 16 -9 49 -39 72 -68 41 -51 108 -182 108
-210 0 -8 7 -20 15 -27 12 -10 41 5 167 86 186 121 221 153 238 223 17 72 8
129 -57 354 -53 184 -55 195 -49 275 5 66 4 82 -6 76 -125 -74 -208 -137 -236
-178 -47 -72 -49 -112 -12 -252 18 -65 41 -152 51 -193 23 -84 22 -164 -1
-168 -9 -2 -44 38 -90 104 -146 207 -176 228 -339 244 -52 5 -98 12 -102 16
-12 12 -185 425 -220 521 -31 88 -36 151 -18 215 13 49 6 56 -32 34 -17 -9
-35 -17 -40 -17 -6 0 -24 29 -40 65 -16 36 -35 65 -42 65 -7 0 -53 -33 -102
-73z m102 -574 c70 -181 77 -202 72 -207 -3 -3 -27 -7 -53 -7 -35 -2 -52 3
-66 17 -25 25 -80 159 -80 195 0 35 67 116 83 100 5 -5 25 -50 44 -98z"/>
<path d="M10368 23303 c-9 -10 -34 -45 -57 -77 -63 -91 -54 -129 39 -155 25
-7 67 -24 94 -38 26 -13 54 -22 61 -19 16 6 45 90 45 132 0 27 -12 43 -76 103
-42 39 -79 71 -83 71 -5 0 -15 -8 -23 -17z"/>
<path d="M10017 23208 c-74 -91 -95 -151 -63 -177 7 -6 45 -22 84 -35 38 -13
81 -32 96 -41 37 -24 53 -14 70 46 27 89 24 96 -61 177 -42 39 -80 72 -84 72
-4 0 -23 -19 -42 -42z"/>
<path d="M15441 22797 c-154 -85 -195 -137 -193 -247 1 -36 17 -143 37 -239
39 -196 42 -231 19 -269 -26 -44 -84 -82 -412 -267 -330 -185 -414 -225 -525
-245 -37 -7 -70 -16 -73 -21 -10 -18 71 -42 157 -47 136 -8 171 7 614 258 215
122 409 236 431 253 95 74 129 147 118 252 -3 33 -21 139 -39 235 -47 241 -50
276 -31 330 9 25 16 48 16 53 0 15 -28 5 -119 -46z"/>
<path d="M16400 22320 c-357 -154 -405 -179 -434 -229 -35 -60 -26 -102 70
-317 48 -109 89 -216 92 -240 4 -41 3 -42 -39 -67 -57 -33 -418 -181 -489
-201 -30 -8 -82 -18 -115 -21 -103 -11 -117 -15 -105 -31 27 -32 123 -57 220
-58 109 0 88 -8 625 218 l299 126 69 -27 c38 -15 81 -36 95 -47 13 -11 115
-65 226 -121 238 -120 417 -219 656 -364 96 -58 210 -123 253 -146 42 -22 281
-188 530 -370 l452 -330 426 -402 c398 -375 442 -419 645 -659 l219 -256 7
-99 c10 -135 31 -219 78 -314 42 -85 112 -175 136 -175 17 0 17 2 -1 70 -19
72 -20 240 -2 240 16 0 44 -30 82 -90 15 -25 77 -114 137 -197 110 -155 162
-203 216 -203 20 0 21 4 15 70 l-6 71 55 52 c45 43 421 312 1184 848 142 100
143 97 -21 124 -94 15 -159 35 -202 63 -33 21 -49 10 -84 -60 -64 -127 -119
-214 -161 -254 -39 -37 -693 -505 -745 -532 -12 -7 -36 -12 -53 -12 -38 0 -88
48 -119 116 -11 23 -61 91 -112 151 -50 59 -93 113 -96 120 -2 6 49 140 116
296 173 412 174 414 79 441 -97 27 -418 48 -418 28 0 -5 9 -17 21 -28 69 -62
76 -161 25 -332 -19 -63 -38 -118 -44 -124 -7 -7 -21 2 -44 28 -18 21 -51 59
-74 84 -22 25 -84 97 -136 160 -53 63 -121 140 -152 170 -31 30 -56 59 -56 65
0 32 155 550 181 602 20 41 48 78 80 105 27 24 49 47 49 52 0 10 -529 0 -683
-14 -132 -11 -163 -28 -202 -108 -16 -34 -35 -62 -42 -62 -7 0 -24 16 -39 36
-15 19 -54 56 -86 80 -52 41 -58 49 -58 82 0 51 95 605 115 671 11 35 31 69
61 101 24 26 44 52 44 59 0 17 -31 14 -335 -34 l-285 -46 -45 31 c-77 53 -124
70 -197 70 -127 0 -234 -62 -259 -152 -18 -62 -23 -65 -67 -35 -21 15 -46 27
-56 27 -10 0 -111 56 -225 123 -236 142 -522 299 -694 383 -66 31 -121 63
-124 71 -3 8 -35 27 -70 43 -64 29 -65 30 -60 62 17 94 17 139 3 313 -20 237
-20 309 -1 371 17 55 19 74 8 74 -5 0 -154 -63 -333 -140z m74 -285 c1 -50 9
-147 16 -217 14 -125 13 -129 -7 -155 -24 -33 -78 -67 -93 -58 -5 3 -10 30
-10 58 0 29 -7 97 -15 152 -21 146 -20 226 5 257 20 26 78 60 94 55 4 -2 9
-43 10 -92z m1870 -1083 c38 -35 49 -72 42 -143 -10 -115 -18 -120 -95 -59
-59 47 -81 84 -81 138 0 79 76 116 134 64z m353 -87 c34 -24 37 -83 10 -238
-13 -75 -27 -140 -30 -144 -9 -8 -47 12 -88 47 l-32 26 23 150 c15 101 28 153
38 162 21 16 53 15 79 -3z m900 -787 c-13 -32 -58 -170 -77 -235 -11 -40 -26
-73 -33 -73 -21 0 -87 73 -87 97 0 48 50 182 77 202 30 24 129 31 120 9z"/>
<path d="M6775 21879 c-27 -87 -32 -138 -13 -157 7 -7 43 -12 88 -12 41 -1 94
-5 118 -9 40 -8 44 -7 54 14 16 36 1 129 -25 153 -17 15 -178 92 -193 92 -2 0
-15 -36 -29 -81z"/>
<path d="M13873 21911 c-68 -44 -103 -78 -103 -100 0 -8 41 -54 91 -103 90
-86 92 -88 112 -71 35 31 77 95 77 117 0 36 -82 196 -100 196 -9 0 -44 -17
-77 -39z"/>
<path d="M14203 21851 c-71 -46 -105 -85 -95 -111 4 -10 46 -54 93 -99 l86
-80 35 37 c71 74 73 102 18 212 -28 56 -46 80 -59 80 -10 0 -45 -17 -78 -39z"/>
<path d="M7157 21684 c-3 -6 -20 -59 -37 -119 -62 -224 -41 -267 212 -436 145
-96 188 -134 188 -166 0 -29 -12 -29 -110 -3 -41 11 -115 29 -165 40 -84 18
-93 18 -153 3 -37 -9 -84 -30 -111 -50 -25 -18 -62 -45 -82 -59 l-37 -25 -261
130 c-143 72 -268 131 -276 131 -20 0 -22 -6 -39 -125 -17 -111 -13 -125 38
-125 43 0 326 -139 326 -159 -1 -19 -82 -81 -107 -81 -10 0 -102 43 -205 95
-103 52 -194 95 -203 95 -8 0 -17 -10 -20 -22 -13 -56 -31 -208 -26 -216 3 -5
26 -13 51 -17 59 -10 201 -81 194 -97 -7 -19 -89 -78 -107 -78 -9 0 -75 29
-147 65 -72 35 -137 62 -144 59 -13 -5 -24 -51 -42 -177 -8 -57 5 -77 51 -77
85 0 85 -29 0 -94 -36 -26 -65 -54 -65 -61 0 -8 -60 -65 -132 -129 -73 -63
-164 -143 -201 -178 -38 -35 -75 -67 -83 -71 -16 -9 -340 91 -422 131 -29 14
-67 41 -83 59 -16 19 -34 31 -39 28 -14 -8 -13 -225 1 -279 14 -57 58 -108
114 -135 25 -12 110 -44 189 -70 196 -67 236 -89 236 -130 0 -5 -75 -11 -167
-14 -200 -6 -242 -17 -293 -77 -145 -172 -243 -281 -268 -299 -17 -12 -53 -53
-82 -91 -39 -52 -58 -70 -76 -70 -40 0 -464 69 -553 90 -93 23 -129 41 -180
94 -19 20 -39 36 -43 36 -4 0 -8 -21 -8 -46 l0 -46 -75 7 c-66 6 -76 5 -82
-11 -8 -22 15 -225 28 -241 6 -6 43 -17 84 -24 40 -6 78 -15 85 -19 6 -4 20
-63 31 -131 11 -68 26 -158 34 -199 23 -118 77 -180 188 -215 103 -32 124 -45
142 -86 10 -21 23 -39 30 -39 7 0 135 168 285 373 149 204 291 390 315 412 24
22 111 119 194 215 83 96 163 181 178 189 47 25 185 26 283 3 47 -11 87 -18
90 -15 3 2 7 100 10 216 l5 211 205 183 c113 100 225 204 250 231 25 27 262
211 526 409 521 391 588 433 689 433 68 0 144 -23 234 -71 61 -33 77 -38 87
-27 17 18 114 366 114 409 0 43 -40 125 -78 162 -16 15 -111 82 -213 150 -183
122 -197 135 -255 233 -6 10 -13 14 -17 8z m-2999 -3099 c39 -8 101 -19 138
-25 122 -19 125 -23 66 -90 l-38 -43 -84 13 c-105 16 -138 32 -156 75 -16 39
-19 85 -5 85 5 0 41 -7 79 -15z"/>
<path d="M11645 21545 c-11 -3 -132 -12 -270 -20 -438 -29 -913 -111 -1395
-242 -312 -84 -386 -108 -615 -200 -143 -58 -271 -114 -284 -126 -32 -30 -68
-113 -82 -191 -22 -129 34 -228 166 -291 131 -63 137 -63 396 53 253 113 241
108 620 226 225 69 337 97 600 150 409 82 387 79 818 121 347 34 380 35 764
35 227 0 511 -7 652 -15 314 -18 495 -38 1020 -111 171 -24 788 -149 905 -184
58 -17 240 -69 405 -116 324 -92 443 -134 775 -272 586 -244 989 -461 1547
-833 308 -205 303 -202 658 -493 220 -181 341 -290 564 -510 346 -341 356
-352 611 -656 271 -323 251 -296 470 -610 324 -465 527 -800 738 -1218 206
-407 317 -678 470 -1142 145 -439 267 -967 337 -1460 l14 -95 -3 115 c-4 152
-65 589 -122 870 -158 788 -454 1577 -897 2395 -100 185 -431 708 -581 919
-75 106 -415 546 -503 652 -79 94 -507 545 -649 684 -111 108 -468 424 -629
556 -122 101 -702 511 -820 580 -71 42 -222 130 -335 196 -261 154 -435 241
-844 422 -328 146 -568 232 -1111 401 -148 46 -647 165 -875 210 -237 46 -740
125 -895 140 -82 8 -244 24 -360 36 -180 19 -283 22 -725 25 -283 1 -524 1
-535 -1z"/>
<path d="M12582 20923 c-5 -10 -35 -90 -67 -178 -82 -228 -211 -552 -314 -787
-128 -293 -159 -415 -148 -584 11 -156 52 -266 172 -459 178 -288 155 -257
195 -251 19 3 76 11 126 18 91 11 134 7 280 -29 17 -4 40 25 151 194 72 109
142 225 156 258 72 174 67 392 -15 625 -17 47 -108 267 -203 490 -95 223 -185
434 -200 470 -64 156 -108 250 -116 250 -4 0 -12 -8 -17 -17z"/>
<path d="M4358 20464 c-26 -14 -48 -42 -48 -62 0 -5 18 -12 41 -16 47 -8 89
-45 89 -79 0 -41 -22 -50 -99 -43 -67 7 -71 6 -102 -22 -42 -37 -34 -57 25
-66 48 -8 106 -47 106 -72 0 -31 -45 -61 -101 -68 -31 -4 -69 -16 -87 -26 -33
-20 -57 -56 -43 -64 19 -12 159 -28 209 -24 72 6 82 20 133 183 22 72 54 169
70 217 16 48 29 93 29 101 0 10 -27 22 -78 36 -92 25 -108 25 -144 5z"/>
<path d="M6633 19252 c-272 -220 -320 -262 -557 -487 -344 -326 -771 -838
-1074 -1288 -269 -399 -445 -707 -664 -1162 -190 -393 -218 -460 -371 -873
-119 -320 -160 -444 -230 -703 -148 -542 -153 -567 -232 -1044 -59 -363 -67
-428 -91 -780 -9 -132 -19 -285 -23 -340 -8 -118 4 -756 19 -965 10 -146 96
-821 126 -980 8 -47 37 -170 64 -275 26 -104 71 -286 100 -403 54 -225 232
-773 334 -1030 285 -724 565 -1289 942 -1899 66 -108 362 -528 472 -672 102
-134 491 -577 594 -677 298 -292 537 -502 704 -620 38 -26 104 -75 147 -107
96 -72 124 -81 213 -67 133 21 228 90 254 185 17 59 8 207 -15 263 -16 39 -37
56 -229 187 -229 156 -224 152 -539 427 -161 140 -268 246 -434 425 -279 301
-268 288 -491 581 -243 319 -230 300 -436 625 -253 399 -460 784 -671 1252
-142 313 -161 360 -305 739 -95 252 -127 357 -279 896 -71 253 -79 290 -131
600 -113 677 -148 1136 -131 1723 16 520 18 537 97 1102 32 231 77 447 196
950 28 120 224 738 285 900 48 129 295 688 379 860 535 1094 1184 1929 2136
2753 59 51 110 97 113 102 20 32 -42 -13 -272 -198z"/>
<path d="M3440 19275 c-10 -12 -11 -32 -2 -96 20 -137 37 -150 136 -108 38 16
89 34 113 40 34 9 43 16 43 33 -1 33 -52 119 -80 133 -37 19 -194 17 -210 -2z"/>
<path d="M5696 19219 c-9 -47 -7 -154 3 -182 14 -37 42 -41 117 -18 36 12 83
21 104 21 51 0 62 16 49 66 -18 66 -39 102 -67 113 -22 8 -161 31 -191 31 -5
0 -11 -14 -15 -31z"/>
<path d="M3237 18997 c-7 -18 9 -157 21 -189 16 -40 43 -43 119 -9 37 16 87
34 111 40 48 13 50 21 23 85 -35 80 -46 86 -165 86 -76 0 -105 -4 -109 -13z"/>
<path d="M5469 18994 c-8 -10 -13 -47 -13 -105 -1 -78 2 -91 21 -110 l22 -22
79 21 c44 12 93 22 109 22 49 0 59 22 39 85 -25 81 -39 93 -126 105 -41 6 -85
13 -96 15 -12 3 -27 -2 -35 -11z"/>
<path d="M19646 18897 c-17 -12 -18 -21 -11 -73 5 -32 11 -88 14 -124 l6 -65
52 1 c100 3 122 29 156 177 l15 68 -26 11 c-46 18 -184 22 -206 5z"/>
<path d="M22045 18561 c-42 -66 -100 -142 -128 -168 -34 -32 -195 -134 -451
-287 -395 -236 -481 -297 -506 -356 -7 -18 -11 -57 -8 -94 3 -53 13 -83 55
-168 29 -57 73 -129 98 -160 47 -60 81 -77 72 -35 -2 12 -14 69 -27 127 -35
166 -17 255 69 338 21 21 306 198 632 394 327 196 606 366 622 378 37 29 34
40 -10 40 -60 0 -223 48 -276 80 -27 17 -52 30 -57 30 -4 0 -43 -54 -85 -119z"/>
<path d="M12542 18584 c-67 -18 -84 -27 -134 -72 -90 -81 -123 -226 -78 -344
25 -68 88 -135 157 -170 66 -32 196 -33 264 -1 105 48 170 144 177 264 7 114
-14 167 -99 251 -37 37 -69 65 -72 62 -2 -2 -30 2 -63 11 -70 18 -83 18 -152
-1z m168 -31 c197 -64 260 -323 113 -470 -53 -53 -106 -76 -185 -81 -145 -9
-257 74 -293 216 -55 214 152 404 365 335z"/>
<path d="M12535 18525 c-206 -76 -223 -366 -29 -465 90 -46 232 -28 285 36 13
16 12 16 -10 5 -40 -22 -119 -25 -167 -6 -56 21 -109 83 -124 144 -38 158 127
299 277 236 32 -14 34 -14 22 1 -43 51 -177 77 -254 49z"/>
<path d="M12650 18369 l0 -46 -52 -20 -53 -21 50 -14 c50 -15 50 -15 55 -63
l5 -49 25 37 c14 20 28 37 31 37 4 0 26 -7 49 -15 23 -8 45 -15 47 -15 3 0 -9
18 -26 39 -17 21 -31 42 -31 46 0 4 14 25 31 46 17 21 29 39 27 39 -3 0 -26
-7 -53 -16 -42 -15 -49 -15 -56 -2 -4 8 -17 26 -28 39 l-20 24 -1 -46z"/>
<path d="M12821 18191 c-1 -8 -9 -24 -18 -35 -16 -20 -16 -20 6 0 13 12 21 28
18 35 -4 11 -6 11 -6 0z"/>
<path d="M12071 17964 c-127 -119 -212 -170 -330 -200 -39 -10 -71 -23 -71
-29 0 -6 18 -49 41 -96 56 -116 79 -210 79 -329 0 -113 -10 -147 -79 -269 -76
-133 -86 -173 -85 -331 0 -107 5 -153 23 -219 59 -220 192 -466 340 -626 137
-149 382 -312 550 -366 l72 -23 69 23 c140 48 340 177 481 309 179 168 334
434 400 688 19 71 24 115 24 219 0 153 -11 190 -102 355 l-58 105 0 140 c0
155 6 182 77 332 42 90 45 103 24 103 -8 0 -51 11 -95 25 -92 29 -190 92 -278
176 -32 30 -63 58 -69 62 -7 4 -45 -7 -85 -24 -240 -99 -485 -104 -739 -15
-52 18 -102 36 -111 40 -12 5 -34 -9 -78 -50z m196 -18 c56 -20 142 -40 190
-47 133 -17 174 -29 78 -23 -69 5 -89 2 -150 -21 l-70 -25 110 5 c61 3 134 8
163 11 50 5 52 4 52 -19 0 -23 -4 -24 -82 -30 -140 -11 -292 -64 -495 -175
-68 -36 -123 -71 -123 -77 0 -5 55 -46 123 -89 l123 -79 32 -79 c34 -83 34
-106 2 -85 -15 9 -25 9 -37 1 -13 -8 -23 -8 -35 0 -13 8 -23 7 -39 -2 -18 -11
-23 -11 -34 5 -12 16 -14 17 -32 1 -16 -14 -20 -14 -31 -2 -12 13 -17 13 -38
-1 -20 -13 -27 -13 -45 -3 -17 10 -23 10 -26 1 -6 -15 -33 -17 -33 -3 0 13
-33 13 -45 1 -6 -6 -10 30 -11 97 -2 130 -21 214 -74 328 -22 48 -39 88 -38
89 2 1 35 12 73 23 93 28 180 81 279 169 47 42 87 70 96 68 8 -3 61 -20 117
-39z m872 -18 c103 -98 213 -162 328 -192 l42 -11 -40 -84 c-57 -123 -70 -173
-76 -309 -5 -102 -8 -120 -20 -111 -10 9 -18 8 -33 -6 -11 -10 -20 -13 -20 -8
0 20 -34 25 -47 7 -12 -16 -14 -16 -34 2 -19 17 -22 18 -33 2 -12 -16 -14 -16
-29 -1 -15 15 -18 15 -35 0 -16 -15 -20 -15 -34 -1 -14 14 -17 14 -32 -1 -16
-16 -18 -16 -36 0 -10 9 -24 14 -30 10 -6 -4 -2 11 9 33 17 33 26 40 58 45 49
8 123 56 158 103 23 30 25 35 9 30 -11 -3 -33 -8 -49 -11 -17 -2 -54 -10 -83
-16 -29 -6 -54 -10 -56 -8 -2 2 -6 19 -10 38 l-6 33 36 -7 c21 -3 48 -13 61
-22 13 -9 26 -13 29 -10 3 3 -8 13 -25 21 -23 12 -34 28 -46 68 -27 93 -17
183 30 252 29 42 23 45 -65 21 -74 -20 -80 -19 -80 10 0 22 -4 25 -32 24 -18
-1 -44 -5 -58 -9 -20 -7 -16 -8 23 -9 39 -1 47 -4 47 -20 0 -15 -17 -25 -77
-46 -43 -15 -84 -29 -91 -32 -15 -6 16 61 50 110 18 25 18 27 2 27 -10 0 -53
-10 -96 -21 -44 -12 -81 -20 -83 -18 -2 2 -5 20 -7 39 l-3 35 65 7 c90 10 193
36 270 69 36 15 69 27 74 28 5 1 38 -27 75 -61z m-322 -125 c-50 -83 -62 -123
-62 -218 0 -66 5 -99 18 -124 9 -19 16 -36 14 -38 -2 -2 -19 3 -38 11 -112 46
-220 41 -331 -15 -32 -16 -61 -29 -66 -29 -5 0 -16 26 -26 58 -10 31 -20 62
-23 68 -13 34 182 196 301 250 44 20 206 72 229 73 4 1 -3 -16 -16 -36z m-277
-36 c-103 -43 -237 -126 -339 -211 l-43 -36 -33 29 c-19 16 -43 32 -54 36 -12
3 -21 10 -21 14 0 10 213 110 295 140 69 25 177 49 220 50 25 0 22 -3 -25 -22z
m554 -24 c-28 -54 -32 -152 -11 -224 l14 -44 -54 3 c-59 4 -140 -18 -184 -49
-15 -10 -32 -19 -37 -19 -6 0 -22 24 -36 54 -29 61 -35 162 -13 206 15 30 87
61 221 95 131 33 128 34 100 -22z m-564 3 c0 -2 -19 -16 -43 -29 -65 -38 -143
-113 -188 -178 l-39 -58 -38 16 c-20 10 -39 19 -41 20 -10 7 211 165 284 202
64 33 65 33 65 27z m-431 -195 c44 -34 46 -42 18 -62 -22 -16 -26 -15 -90 21
l-68 37 33 21 c38 25 59 21 107 -17z m228 -157 c-3 -3 -79 15 -85 21 -2 2 9
25 24 51 l28 47 18 -58 c11 -31 17 -59 15 -61z m-102 90 c21 -13 22 -19 13
-40 -14 -29 -13 -29 -77 -3 -49 21 -51 23 -35 40 21 23 66 24 99 3z m774 -71
c1 -13 -3 -23 -9 -23 -5 0 -10 19 -9 43 0 32 2 37 9 22 5 -11 9 -30 9 -42z
m-409 -20 l-5 -58 -45 -3 c-69 -5 -110 5 -110 28 0 15 -7 20 -27 20 -37 0 -21
14 52 44 33 14 78 25 100 26 l40 0 -5 -57z m80 3 c0 -44 4 -55 18 -59 10 -3 6
-5 -10 -6 -28 -1 -28 0 -28 59 0 33 4 60 10 60 6 0 10 -24 10 -54z m238 17
c-2 -22 -9 -29 -32 -31 -45 -5 -52 12 -14 36 43 28 50 27 46 -5z m-153 -9 c19
-29 13 -74 -9 -74 -7 0 -16 14 -20 31 -14 71 -2 89 29 43z m-48 -26 c-3 -7 -5
-2 -5 12 0 14 2 19 5 13 2 -7 2 -19 0 -25z m92 23 c9 -6 10 -11 2 -15 -13 -8
-31 1 -31 15 0 11 11 11 29 0z m131 -6 c0 -8 -4 -15 -10 -15 -5 0 -7 7 -4 15
4 8 8 15 10 15 2 0 4 -7 4 -15z m35 6 c3 -5 1 -12 -5 -16 -5 -3 -10 1 -10 9 0
18 6 21 15 7z m-332 -8 c-7 -2 -19 -2 -25 0 -7 3 -2 5 12 5 14 0 19 -2 13 -5z
m7 -33 c0 -11 -4 -20 -10 -20 -5 0 -7 6 -4 14 3 8 -2 16 -13 19 -14 4 -14 5 5
6 16 1 22 -5 22 -19z m73 -7 c-7 -2 -19 -2 -25 0 -7 3 -2 5 12 5 14 0 19 -2
13 -5z m60 -163 c189 -14 233 -31 207 -79 -23 -43 -53 -52 -152 -41 -51 5
-128 10 -170 10 -60 0 -78 3 -78 14 0 8 11 17 24 20 28 7 41 33 25 52 -17 20
-31 17 -24 -5 4 -15 -1 -19 -32 -25 -21 -3 -64 -6 -95 -6 -45 0 -58 3 -58 15
0 24 -17 17 -44 -17 -22 -28 -28 -30 -36 -18 -8 12 -10 11 -10 -7 0 -35 21
-39 47 -9 19 22 26 25 42 16 11 -5 40 -10 65 -10 72 0 54 -16 -26 -24 -40 -3
-93 -9 -118 -12 -36 -5 -50 -2 -70 14 -21 17 -23 24 -15 48 14 38 52 50 191
62 149 13 180 13 327 2z m-691 -106 c-126 -37 -232 -97 -232 -130 0 -9 -22
-35 -48 -59 -48 -43 -102 -128 -90 -140 4 -4 20 3 37 16 17 12 33 21 35 18 2
-2 0 -24 -4 -49 -19 -97 -16 -99 51 -31 65 66 107 92 179 111 53 14 62 25 54
66 l-6 31 95 31 c52 18 124 36 161 41 76 11 86 16 86 41 0 25 19 30 111 30
l79 0 0 -775 c0 -426 -3 -775 -7 -775 -15 0 -115 41 -176 72 -82 41 -215 132
-302 205 -287 242 -502 721 -457 1020 9 60 24 104 68 191 l56 112 197 -1 196
0 -83 -25z m482 11 c3 -9 0 -15 -9 -15 -9 0 -12 6 -9 15 4 8 7 15 9 15 2 0 5
-7 9 -15z m903 -52 c74 -129 86 -167 91 -289 2 -62 -1 -141 -7 -178 -41 -232
-194 -529 -368 -711 -75 -78 -221 -191 -328 -254 -75 -45 -200 -101 -224 -101
-8 0 -11 227 -11 775 l0 775 69 0 c99 0 128 -8 135 -36 10 -37 43 -51 153 -63
56 -6 132 -21 168 -33 66 -21 67 -22 61 -53 -7 -38 8 -54 74 -79 62 -24 108
-53 153 -95 36 -34 37 -35 37 -11 0 14 -5 43 -10 65 -5 22 -7 41 -5 43 2 2 17
-4 35 -13 18 -9 34 -15 36 -12 7 7 -72 123 -99 143 -14 12 -27 33 -29 49 -3
25 -14 34 -77 66 -41 21 -110 47 -155 58 l-81 19 172 1 171 1 39 -67z m-1139
-3 c29 -7 50 -15 47 -19 -2 -5 -30 -11 -62 -14 -32 -3 -76 -12 -98 -20 -22 -8
-53 -17 -70 -21 -44 -10 -10 11 40 25 41 11 75 35 75 52 0 5 -11 6 -24 3 -14
-3 -28 -2 -31 4 -3 5 -1 10 4 10 6 0 11 5 11 10 0 16 -27 11 -34 -6 -4 -9 -1
-23 5 -30 9 -11 8 -14 -1 -14 -6 0 -20 10 -30 23 -22 27 -36 17 -20 -13 13
-25 1 -40 -34 -40 -15 0 -16 -3 -6 -15 7 -9 11 -17 9 -19 -7 -7 -134 -58 -156
-63 -27 -6 -83 31 -83 55 0 19 63 67 68 52 2 -5 11 -10 19 -10 9 0 13 6 10 14
-4 10 0 12 14 9 12 -4 19 0 19 10 0 12 30 34 34 25 1 -2 7 -14 14 -26 7 -13
11 -27 8 -30 -3 -3 -6 0 -6 7 0 7 -4 10 -9 7 -5 -4 -12 0 -14 6 -3 8 -6 7 -6
-4 -1 -9 7 -22 17 -27 15 -9 15 -10 -5 -11 -12 0 -25 5 -28 10 -11 18 -26 10
-37 -21 -7 -20 -15 -28 -25 -25 -9 4 -13 1 -11 -6 8 -22 39 -21 45 1 4 16 11
19 34 14 21 -4 36 0 49 12 24 22 25 37 5 74 -13 27 -13 29 5 34 15 4 22 -3 32
-29 6 -19 16 -34 20 -34 13 0 9 24 -8 48 -18 26 -16 27 61 40 45 8 53 6 75
-14 14 -13 49 -28 78 -34z m757 45 c120 -15 287 -85 293 -122 4 -27 -44 -83
-72 -83 -12 0 -32 7 -44 16 -13 9 -49 26 -80 39 -31 13 -50 24 -41 25 9 0 33
-7 52 -15 41 -17 103 -20 112 -5 3 5 2 18 -4 27 -9 17 -10 17 -16 1 -11 -27
-45 -23 -42 5 2 18 -3 22 -25 22 -23 -1 -28 4 -29 25 l-1 25 -10 -27 c-11 -31
-43 -37 -92 -18 -21 8 -26 16 -26 45 0 41 -20 48 -21 8 0 -27 -1 -27 -9 -5
-12 29 -33 28 -49 -1 -7 -13 -25 -28 -39 -34 l-27 -11 25 -1 c14 -1 39 3 56 8
26 7 33 5 52 -16 l22 -24 -48 6 c-26 3 -67 8 -92 11 -64 7 -80 13 -80 30 0 8
15 16 42 20 24 4 54 19 72 35 18 17 39 26 51 24 11 -2 43 -7 70 -10z m32 -121
c-3 -3 -12 -4 -19 -1 -8 3 -5 6 6 6 11 1 17 -2 13 -5z m-1225 -69 c24 -20 40
-25 88 -25 72 0 86 -15 28 -31 -65 -17 -116 -46 -169 -96 l-48 -45 6 39 c3 21
12 50 20 66 16 32 14 33 -37 7 -22 -11 -40 -18 -40 -14 0 7 111 124 118 124 2
0 17 -11 34 -25z m1547 -20 c45 -48 54 -73 22 -55 -11 5 -26 10 -35 10 -12 0
-13 -4 -1 -27 16 -34 27 -83 20 -83 -4 0 -23 13 -43 30 -32 25 -101 60 -166
84 -34 12 -1 29 53 27 45 -1 52 2 72 29 13 16 26 30 30 30 3 0 25 -20 48 -45z"/>
<path d="M12510 17166 c-31 -7 -38 -11 -24 -13 26 -5 92 11 79 18 -6 3 -30 1
-55 -5z"/>
<path d="M12755 17170 c3 -5 -3 -10 -14 -10 -12 0 -21 -4 -21 -10 0 -13 26
-13 51 1 21 11 17 29 -7 29 -8 0 -12 -4 -9 -10z"/>
<path d="M12335 17161 c-3 -5 -1 -12 5 -16 5 -3 10 1 10 9 0 18 -6 21 -15 7z"/>
<path d="M12370 17160 c0 -5 5 -10 10 -10 6 0 10 5 10 10 0 6 -4 10 -10 10 -5
0 -10 -4 -10 -10z"/>
<path d="M12660 17141 c0 -11 -10 -27 -22 -35 l-22 -16 26 0 c15 0 29 4 32 8
3 5 54 8 113 7 128 -2 157 10 87 36 -26 10 -52 15 -57 12 -6 -4 -2 -10 9 -14
12 -5 -6 -8 -47 -8 -43 -1 -72 4 -85 14 -26 20 -34 19 -34 -4z"/>
<path d="M12196 16789 c-10 -49 -7 -59 13 -59 16 0 17 5 11 40 -10 53 -16 58
-24 19z"/>
<path d="M12025 16680 c-36 -24 -59 -26 -51 -5 6 17 -9 21 -19 4 -4 -5 0 -18
8 -27 13 -15 9 -41 -42 -247 -31 -127 -60 -235 -64 -242 -9 -15 33 -48 80 -64
46 -15 96 -6 144 26 32 21 37 28 29 43 -5 9 -33 120 -60 245 l-51 228 23 19
c28 23 38 25 38 5 0 -20 30 -19 96 2 50 15 56 15 105 0 63 -21 88 -21 95 -2 6
14 14 12 52 -13 10 -7 0 -59 -43 -238 -30 -126 -59 -236 -64 -245 -12 -21 8
-41 62 -64 47 -19 90 -19 130 1 54 27 67 43 56 67 -20 47 -109 472 -99 475 13
5 13 42 0 42 -5 0 -7 -7 -4 -15 9 -22 -22 -19 -57 6 -32 22 -65 19 -55 -6 7
-20 -2 -19 -67 6 -58 22 -67 21 -174 -18 -6 -2 -10 4 -10 13 3 26 -23 27 -58
4z m13 -300 c23 -102 42 -193 42 -202 0 -16 -11 -18 -101 -18 -77 0 -100 3
-96 13 2 6 26 101 52 210 27 109 51 194 55 190 4 -4 25 -91 48 -193z m441 4
c23 -108 45 -203 48 -210 4 -11 -14 -14 -96 -14 -74 0 -101 3 -101 13 -1 22
94 407 100 407 3 0 25 -88 49 -196z"/>
<path d="M12196 16317 c-7 -325 -3 -467 14 -467 16 0 20 144 10 465 -6 186
-12 340 -14 342 -2 2 -6 -151 -10 -340z"/>
<path d="M12903 16766 c-4 -7 -26 -21 -48 -32 -28 -13 -41 -26 -43 -44 -4 -22
-2 -23 14 -10 16 14 17 13 11 -15 -3 -20 0 -36 10 -47 15 -16 15 -20 -1 -37
-16 -18 -19 -36 -13 -106 2 -29 0 -30 -33 -27 -45 4 -51 11 -52 61 0 22 -4 41
-9 41 -15 0 -10 98 6 137 14 33 14 38 -1 55 -10 10 -23 18 -30 18 -16 0 -28
-68 -26 -147 1 -50 -2 -63 -13 -63 -8 0 -15 -7 -15 -15 0 -8 5 -15 10 -15 6 0
10 -29 10 -66 l0 -66 28 7 c26 5 29 3 40 -37 10 -36 18 -47 57 -65 26 -14 63
-23 90 -23 32 0 51 -6 65 -20 29 -29 17 -40 -39 -40 -42 0 -49 -3 -59 -25 -7
-14 -12 -31 -12 -37 0 -7 -10 -22 -22 -35 -12 -13 -17 -24 -12 -24 5 -1 19 -3
32 -4 40 -4 48 -20 32 -68 -12 -34 -20 -43 -43 -45 -30 -4 -55 -38 -39 -54 5
-5 33 -8 63 -6 l53 3 36 69 c19 38 44 73 55 77 32 12 92 10 103 -4 17 -20 -20
-95 -50 -99 -15 -2 -24 -11 -26 -26 -3 -22 -1 -23 65 -20 l68 3 5 52 c4 39 13
60 33 81 18 18 27 39 27 60 0 18 5 32 10 32 15 0 12 26 -5 40 -11 9 -12 16 -4
26 6 7 8 18 4 23 -3 6 5 30 19 54 36 61 33 94 -19 193 -33 61 -43 92 -39 110
4 14 2 24 -5 24 -16 0 -14 32 5 58 10 14 25 22 45 22 24 0 29 -4 29 -25 0 -14
5 -25 11 -25 8 0 8 -5 -1 -15 -16 -19 -36 -19 -44 1 -8 22 -26 8 -26 -21 0
-63 90 -62 116 1 27 65 -17 133 -87 134 -49 0 -84 -29 -97 -82 -14 -57 -4
-107 42 -200 40 -80 42 -110 10 -142 -37 -37 -164 -3 -164 44 0 11 10 30 22
42 13 13 21 30 20 39 -2 9 5 19 14 23 9 3 14 13 10 21 -3 8 -2 17 3 19 9 6 8
72 -2 82 -3 4 -4 18 -1 30 4 15 2 24 -6 24 -8 0 -9 10 -5 29 3 17 2 32 -4 36
-6 3 -11 21 -11 38 l0 32 -80 2 c-56 2 -82 -1 -87 -11z m-173 -67 c-2 -13 -4
-57 -5 -96 0 -71 -1 -73 -25 -72 -14 0 -19 3 -12 6 8 3 12 27 12 68 0 79 9
127 24 122 6 -2 9 -15 6 -28z"/>
<path d="M13091 17041 c-9 -6 0 -10 28 -13 29 -2 41 0 41 9 0 15 -48 17 -69 4z"/>
<path d="M13210 17030 c0 -5 5 -10 10 -10 6 0 10 5 10 10 0 6 -4 10 -10 10 -5
0 -10 -4 -10 -10z"/>
<path d="M13276 17011 c-4 -5 -2 -12 3 -15 5 -4 12 -2 15 3 4 5 2 12 -3 15 -5
4 -12 2 -15 -3z"/>
<path d="M10527 17810 c-117 -14 -297 -47 -432 -81 -194 -49 -383 -116 -865
-309 -492 -197 -711 -274 -890 -313 -276 -62 -483 -61 -725 3 -119 32 -120 32
-133 140 -15 121 -52 202 -129 279 -255 253 -667 107 -723 -257 -33 -208 69
-403 256 -493 54 -25 84 -45 84 -56 0 -9 -176 -649 -391 -1422 -844 -3035
-1658 -5958 -1671 -5996 -8 -24 -23 -44 -38 -51 -14 -7 -90 -25 -170 -39 -176
-33 -249 -55 -264 -78 -9 -14 -4 -22 29 -49 106 -86 138 -124 172 -198 43 -94
86 -146 180 -221 168 -133 403 -230 717 -294 136 -28 566 -89 786 -111 202
-20 835 -29 1100 -15 287 15 706 47 860 66 393 49 714 158 975 331 105 69 160
129 228 246 31 53 79 124 107 159 41 51 48 65 38 75 -7 7 -91 28 -186 47 -95
19 -177 38 -182 43 -9 10 -88 283 -969 3349 -319 1111 -718 2499 -886 3085
-193 672 -303 1070 -298 1079 5 7 33 21 63 30 74 23 110 43 165 91 25 22 50
40 55 40 5 0 69 -31 143 -69 214 -110 412 -148 712 -138 310 11 512 63 1070
280 571 221 823 284 1176 294 275 8 479 -19 621 -83 106 -48 200 -48 291 -2
142 71 206 244 149 396 -53 140 -134 186 -402 228 -122 19 -502 27 -623 14z
m-3453 -1369 c10 -11 29 -57 42 -103 52 -177 1994 -6937 2014 -7012 15 -55 19
-81 11 -89 -7 -7 -77 -2 -233 17 -355 42 -484 55 -762 76 -280 22 -385 37
-265 39 73 1 103 20 97 62 -7 49 -7 49 -750 49 l-697 0 -28 24 c-24 21 -28 32
-28 75 0 60 22 88 81 101 21 5 333 10 692 10 714 0 679 -3 745 59 54 49 45 11
147 613 27 163 50 304 50 315 0 40 -16 48 -112 53 l-93 5 -3 164 c-1 99 -7
170 -13 178 -8 9 -52 13 -153 15 l-141 3 -5 93 c-4 67 -9 95 -20 102 -9 6
-176 10 -401 10 -347 0 -388 -2 -400 -17 -9 -10 -15 -48 -17 -107 -4 -130 -5
-132 -53 -140 -55 -9 -116 -40 -162 -85 -45 -42 -69 -85 -92 -164 l-17 -58
-66 3 -66 3 -24 140 c-37 220 -67 261 -199 272 -94 8 -172 -10 -211 -48 -29
-28 -52 -82 -52 -119 1 -34 40 -98 72 -118 39 -24 124 -30 160 -11 32 17 68
61 74 92 10 42 22 42 33 0 5 -21 51 -252 101 -513 50 -261 98 -506 106 -543
21 -101 18 -121 -21 -172 -71 -94 -69 -194 7 -280 22 -25 38 -49 34 -52 -7 -7
-16 -8 -356 -23 -250 -12 -631 -41 -845 -64 -71 -8 -155 -16 -185 -18 l-55 -3
1 45 c0 26 164 632 398 1470 219 784 654 2348 967 3475 313 1128 576 2073 584
2100 24 85 71 118 109 76z m254 -5273 c9 -9 12 -68 12 -204 0 -231 0 -230 -94
-219 -34 3 -66 11 -72 16 -6 5 -21 35 -32 67 -27 71 -66 119 -136 166 -43 28
-55 42 -60 70 -7 37 0 83 17 104 13 17 348 17 365 0z m200 -212 c-3 -183 -4
-191 -23 -191 -19 0 -20 8 -23 189 -3 195 3 231 35 205 11 -10 13 -50 11 -203z
m-1448 36 c0 -29 -16 -44 -41 -40 -30 4 -39 46 -14 65 22 15 55 0 55 -25z
m1778 -129 c3 -135 0 -139 -98 -121 -72 14 -80 25 -80 116 0 99 25 122 125
119 l50 -2 3 -112z m-985 46 c44 -12 102 -59 123 -101 27 -52 11 -58 -156 -58
-82 0 -155 3 -164 6 -47 18 7 108 86 144 50 23 60 24 111 9z m1169 -307 c10
-10 1 -81 -46 -360 -32 -191 -65 -363 -74 -382 -10 -19 -28 -40 -42 -47 -19
-10 -171 -13 -645 -13 -341 0 -630 3 -642 6 -31 8 -38 36 -119 444 -66 334
-67 343 -48 357 26 19 1596 15 1616 -5z"/>
<path d="M6591 12307 c-49 -25 -73 -53 -122 -144 -22 -40 -49 -72 -75 -90 -23
-15 -100 -70 -170 -121 -71 -51 -189 -135 -261 -188 -76 -54 -139 -107 -148
-123 -18 -36 -175 -639 -175 -674 0 -40 38 -77 86 -84 33 -4 45 -1 72 22 18
15 32 31 32 36 0 5 31 78 68 162 38 83 77 172 88 196 60 139 78 165 129 192
28 14 108 56 178 93 71 37 132 65 135 62 3 -4 -47 -60 -111 -125 -109 -110
-117 -120 -117 -157 0 -22 7 -49 15 -60 19 -28 68 -48 98 -40 19 4 277 223
339 286 9 9 37 34 62 55 25 20 55 51 65 69 20 32 101 405 101 462 -1 40 -31
103 -66 136 -64 60 -149 73 -223 35z"/>
<path d="M7365 12311 c-71 -33 -125 -111 -125 -179 0 -52 80 -424 97 -453 19
-31 407 -381 452 -406 57 -33 131 17 131 89 0 37 -8 48 -117 159 -64 65 -114
122 -110 125 3 3 63 -25 134 -62 70 -37 148 -78 173 -90 26 -12 51 -28 57 -36
6 -7 64 -131 128 -276 131 -291 143 -308 210 -299 44 6 85 46 85 83 0 21 -27
131 -105 429 -21 77 -41 157 -46 179 -18 72 -38 94 -172 190 -72 52 -189 136
-259 187 -71 50 -148 104 -172 120 -30 20 -53 48 -76 90 -78 148 -177 200
-285 150z"/>
<path d="M6747 10502 c-15 -16 -17 -48 -17 -245 0 -244 3 -257 55 -257 50 0
55 26 55 260 0 179 -3 219 -16 238 -18 27 -55 29 -77 4z"/>
<path d="M7056 10498 c-13 -19 -16 -59 -16 -238 0 -179 3 -219 16 -238 18 -27
55 -29 77 -4 15 16 17 48 17 244 0 205 -2 226 -18 241 -26 23 -58 21 -76 -5z"/>
<path d="M7372 10508 c-9 -9 -12 -78 -12 -248 0 -170 3 -239 12 -248 19 -19
66 -15 78 7 6 12 10 108 10 241 0 133 -4 229 -10 241 -12 22 -59 26 -78 7z"/>
<path d="M7686 10505 c-14 -14 -16 -47 -16 -245 0 -250 3 -265 59 -258 45 5
51 34 51 258 0 145 -4 212 -13 230 -15 30 -58 38 -81 15z"/>
<path d="M14100 17803 c-19 -2 -87 -10 -150 -19 -185 -24 -269 -76 -329 -204
-57 -121 -24 -289 76 -381 71 -65 122 -84 228 -84 80 0 97 4 155 32 103 49
162 58 385 58 315 -1 507 -41 1074 -226 684 -224 812 -256 1061 -266 321 -12
641 47 934 172 58 25 112 45 120 45 8 0 36 -21 63 -46 51 -48 122 -89 188
-109 21 -7 43 -18 48 -26 6 -10 -149 -581 -476 -1759 -1204 -4324 -1566 -5628
-1577 -5668 -13 -49 -37 -67 -100 -77 -91 -13 -257 -48 -317 -67 -85 -26 -83
-40 19 -124 73 -62 85 -77 120 -152 63 -136 181 -246 366 -340 278 -142 577
-207 1322 -288 412 -45 1423 -19 1960 51 389 50 703 156 963 324 116 76 168
130 232 244 27 48 73 117 102 154 29 37 53 72 53 79 0 17 -15 21 -164 50 -179
34 -204 42 -216 64 -5 10 -366 1257 -801 2772 -435 1514 -918 3198 -1075 3742
-197 689 -281 993 -274 1001 6 7 37 22 71 34 118 44 222 156 261 284 16 55 20
88 16 170 -3 92 -7 109 -39 178 -66 137 -184 226 -332 251 -164 27 -361 -79
-436 -235 -18 -38 -25 -61 -53 -178 -11 -49 -45 -62 -262 -99 -94 -16 -193
-33 -221 -39 -97 -18 -231 -23 -343 -12 -307 31 -525 102 -1242 404 -438 184
-644 244 -966 282 -116 13 -352 18 -444 8z m3941 -1343 c10 -6 26 -24 34 -40
19 -38 2052 -7102 2057 -7150 3 -24 1 -25 -54 -25 -55 0 -58 -1 -58 -24 0 -13
-19 -74 -42 -134 -54 -141 -50 -139 -271 -133 -89 2 -200 11 -247 20 -93 18
-365 88 -431 111 -23 9 -43 14 -43 13 -21 -58 -100 -93 -301 -132 -138 -27
-214 -35 -420 -42 -238 -8 -429 6 -627 46 -202 41 -268 78 -268 152 l0 38
-167 -4 c-397 -8 -732 42 -857 127 -45 32 -35 31 -200 12 -72 -9 -136 -13
-144 -10 -10 4 -13 15 -9 38 3 17 224 815 490 1772 267 957 655 2350 862 3095
627 2258 614 2212 641 2248 28 36 28 36 55 22z"/>
<path d="M12188 15482 c-57 -60 -69 -83 -71 -132 -2 -57 18 -84 106 -142 43
-28 85 -62 93 -74 13 -18 14 -420 14 -2846 0 -1553 3 -2827 6 -2831 4 -4 30 6
58 22 80 46 157 64 248 59 66 -4 90 -11 162 -46 46 -23 88 -42 94 -42 14 0 22
1046 21 2985 -1 1992 6 2654 27 2700 9 19 40 47 85 75 39 24 77 53 85 64 18
27 18 99 -1 135 -19 37 -112 121 -134 121 -10 0 -26 -17 -38 -42 -71 -145
-228 -226 -385 -198 -117 22 -200 81 -259 186 -19 33 -38 54 -49 54 -9 0 -38
-22 -62 -48z"/>
<path d="M21487 11656 c-86 -31 -189 -128 -205 -193 -5 -21 -15 -141 -21 -267
-11 -207 -17 -258 -72 -560 -68 -375 -66 -366 -160 -691 -102 -348 -99 -340
-242 -700 -338 -853 -848 -1712 -1496 -2522 -220 -277 -223 -280 -547 -623
-285 -301 -331 -345 -569 -546 -581 -489 -906 -713 -1550 -1067 -274 -151
-372 -198 -680 -330 -418 -178 -385 -166 -805 -301 -432 -139 -385 -126 -810
-222 -379 -85 -560 -115 -1010 -168 -616 -73 -1273 -84 -1845 -30 -167 15
-681 91 -813 119 -423 90 -775 187 -1139 313 -79 27 -143 46 -143 42 0 -11 98
-52 330 -138 760 -281 1346 -408 2225 -482 222 -19 784 -31 980 -21 577 31
970 75 1463 167 343 63 423 82 814 192 387 109 474 139 871 293 270 105 409
166 657 290 416 206 518 262 750 410 107 69 248 159 313 200 145 91 332 230
667 498 223 178 297 246 584 530 435 432 699 735 1056 1211 225 300 273 369
484 698 138 216 178 284 390 670 131 238 144 264 326 681 103 237 153 368 245
647 100 304 125 392 189 684 41 184 82 376 90 425 22 132 59 551 51 591 -8 48
-115 160 -180 190 -57 27 -138 31 -198 10z"/>
<path d="M13374 9232 c-32 -21 -64 -83 -64 -127 0 -13 10 -35 23 -49 24 -28
563 -346 775 -458 107 -57 143 -71 191 -75 54 -5 62 -3 85 20 21 21 26 36 26
73 0 40 -5 51 -37 83 -48 47 -893 541 -936 547 -21 3 -42 -2 -63 -14z"/>
<path d="M13305 8930 c-23 -44 -19 -55 33 -88 126 -79 809 -462 824 -462 19 0
62 65 55 83 -7 19 -848 497 -874 497 -15 0 -28 -10 -38 -30z"/>
<path d="M13128 8713 c-134 -225 -437 -749 -453 -785 -10 -20 -15 -43 -12 -51
5 -13 830 -500 920 -543 33 -16 39 -16 52 -3 22 22 535 907 535 922 0 8 -8 21
-17 29 -38 32 -910 532 -935 536 -24 4 -31 -5 -90 -105z"/>
<path d="M14017 7828 c-54 -85 -107 -184 -107 -199 0 -18 -34 3 503 -310 252
-147 465 -265 473 -262 18 7 144 224 144 249 0 16 -103 80 -472 294 -260 151
-480 276 -490 278 -12 2 -28 -13 -51 -50z"/>
<path d="M12648 7773 c-30 -35 -38 -59 -25 -76 12 -16 828 -486 858 -494 20
-6 59 42 59 71 0 14 -14 30 -43 47 -87 55 -817 469 -825 469 -5 0 -16 -8 -24
-17z"/>
<path d="M12469 7653 c-59 -36 -84 -143 -43 -183 35 -35 738 -440 871 -502
107 -51 187 -33 207 44 7 29 5 43 -15 78 -22 39 -55 61 -424 277 -564 332
-541 320 -596 286z"/>
<path d="M15172 7362 c-10 -10 -72 -114 -137 -232 l-118 -213 28 -23 c47 -37
104 -59 123 -48 20 12 252 422 252 444 0 9 -15 24 -32 34 -18 10 -47 27 -65
38 -31 19 -32 19 -51 0z"/>
<path d="M15353 7143 c-11 -15 -53 -86 -93 -157 -71 -124 -73 -129 -55 -143
11 -7 197 -115 413 -239 239 -136 402 -224 414 -222 14 2 43 43 99 138 43 74
78 145 78 156 1 18 -66 60 -401 252 -222 127 -410 234 -419 237 -11 4 -23 -3
-36 -22z"/>
<path d="M16338 6673 c-10 -2 -57 -73 -106 -161 -137 -241 -128 -216 -98 -266
61 -104 174 -166 274 -151 164 24 272 127 272 257 0 52 -19 136 -40 178 -52
103 -196 171 -302 143z"/>
<path d="M22864 6566 c-65 -15 -133 -45 -152 -69 -7 -8 -30 -51 -52 -96 -208
-426 -619 -1053 -975 -1486 -356 -434 -820 -907 -1272 -1296 -1231 -1060
-2873 -2004 -4381 -2520 -376 -128 -928 -279 -1347 -368 -260 -55 -702 -127
-925 -151 -102 -11 -225 -25 -275 -30 -270 -31 -501 -42 -965 -47 -545 -6
-787 3 -1244 43 -483 42 -873 99 -1341 195 -1100 227 -2059 557 -3070 1059
-471 233 -781 410 -1175 668 -513 336 -1022 747 -1598 1290 -79 74 -145 132
-149 129 -10 -11 120 -146 410 -428 792 -767 1685 -1393 2735 -1918 1238 -619
2635 -1043 4022 -1220 559 -72 932 -95 1530 -94 1223 1 2268 150 3375 482
1355 406 2842 1149 4086 2039 1336 957 2413 2126 3052 3316 l91 169 -12 55
c-6 30 -25 83 -41 116 -66 140 -178 195 -327 162z"/>
<path d="M10945 6311 c-145 -36 -169 -191 -40 -256 40 -20 60 -20 1685 -20
1625 0 1645 0 1685 20 82 41 110 134 59 195 -15 17 -40 38 -58 48 -29 16 -143
17 -1666 19 -899 0 -1648 -2 -1665 -6z"/>
<path d="M10600 5920 c-108 -14 -185 -73 -185 -141 0 -35 7 -47 41 -79 23 -21
59 -43 80 -49 53 -15 4083 -15 4136 -1 48 14 97 55 115 98 12 30 12 37 -4 70
-20 40 -65 75 -122 94 -28 10 -480 13 -2021 14 -1092 1 -2010 -2 -2040 -6z"/>
<path d="M10205 5515 c-76 -31 -95 -54 -95 -115 0 -62 24 -92 98 -122 l57 -23
2330 0 c2196 0 2333 1 2387 18 63 19 123 68 133 110 11 43 -22 87 -90 122
l-59 30 -2350 2 -2351 3 -60 -25z"/>
<path d="M5027 5492 c-21 -23 -21 -47 -3 -98 7 -22 17 -68 21 -103 l7 -63 44
6 c60 8 122 41 129 69 20 84 32 183 23 195 -7 8 -42 12 -108 12 -81 0 -100 -3
-113 -18z"/>
<path d="M19636 5351 c-6 -9 9 -506 20 -668 8 -130 29 -169 112 -208 34 -16
62 -34 62 -40 0 -13 -135 -142 -187 -178 l-40 -28 -302 122 c-166 67 -321 124
-345 126 -77 9 -88 -24 -107 -301 -8 -127 -8 -171 1 -180 8 -8 16 -4 32 17 47
64 160 85 279 52 154 -44 190 -57 187 -64 -4 -12 -218 -204 -308 -277 -116
-93 -390 -300 -545 -411 -165 -118 -545 -372 -594 -398 -44 -22 -103 -16 -173
18 l-53 26 -300 513 c-401 685 -418 712 -435 716 -12 2 -21 -20 -39 -94 -13
-53 -41 -132 -62 -174 -22 -43 -39 -80 -39 -83 0 -3 58 -44 130 -92 71 -48
146 -105 166 -128 20 -23 137 -215 260 -426 235 -403 244 -424 207 -470 -36
-42 -500 -288 -853 -450 -153 -71 -183 -91 -174 -115 5 -14 -10 -29 -40 -40
-16 -5 -61 35 -235 208 -128 128 -220 212 -227 208 -16 -10 -114 -205 -108
-214 3 -5 27 -19 53 -33 44 -22 251 -225 251 -246 0 -4 -24 -15 -52 -25 -29
-9 -59 -19 -66 -22 -7 -2 -84 66 -177 158 -103 103 -169 161 -178 157 -20 -7
-111 -192 -104 -210 3 -9 21 -23 39 -31 45 -22 165 -143 153 -155 -12 -10
-103 -41 -121 -41 -7 0 -62 50 -122 111 -61 61 -116 109 -122 107 -17 -5 -119
-198 -114 -213 3 -6 25 -21 49 -33 26 -12 61 -43 85 -73 63 -80 73 -104 68
-168 -4 -46 -17 -80 -77 -191 -40 -74 -82 -150 -93 -167 -34 -57 -60 -50 -353
101 -143 73 -275 147 -294 165 l-34 31 6 72 c4 40 9 85 13 100 4 20 3 28 -7
28 -16 0 -27 -18 -120 -197 -56 -107 -69 -141 -69 -178 0 -42 3 -47 48 -80 46
-34 438 -240 576 -302 117 -54 199 -42 258 37 13 18 91 158 174 313 118 221
158 287 184 304 18 13 166 66 329 118 163 53 373 122 466 153 l170 57 5 39 5
39 195 92 c631 296 1353 742 1970 1214 91 70 179 135 195 146 17 10 135 111
263 224 128 113 241 209 250 213 9 4 49 7 88 7 148 2 327 70 429 163 68 62 62
75 -24 53 -87 -22 -180 -29 -215 -16 l-29 12 79 82 c151 159 659 709 668 724
4 8 4 19 -1 24 -5 5 -137 45 -294 90 -551 155 -560 159 -632 239 -47 52 -52
56 -61 41z m407 -476 c76 -24 141 -46 145 -49 3 -4 -14 -27 -39 -52 -49 -51
-52 -51 -173 -14 -78 25 -103 48 -111 104 -8 51 0 70 24 60 9 -3 78 -26 154
-49z"/>
<path d="M5293 5269 c-43 -13 -50 -42 -29 -122 9 -34 19 -82 24 -107 8 -44 9
-45 45 -43 50 3 103 27 121 55 8 12 21 63 29 111 14 88 14 89 -8 97 -36 14
-148 20 -182 9z"/>
<path d="M4853 5128 c-6 -7 -20 -43 -32 -80 -12 -36 -27 -71 -34 -76 -7 -6
-102 -12 -212 -14 -267 -5 -289 -16 -380 -183 -42 -76 -50 -85 -88 -98 -23 -7
-42 -19 -42 -24 0 -20 716 -743 755 -763 21 -11 62 -41 91 -68 30 -26 124
-106 209 -176 85 -71 175 -150 200 -177 63 -67 1164 -840 1210 -849 19 -4 101
-45 181 -92 80 -47 240 -136 355 -198 302 -162 321 -175 365 -244 46 -70 74
-142 91 -231 6 -37 18 -69 25 -72 14 -5 539 181 630 224 64 30 135 106 152
164 10 32 11 110 5 340 -7 295 -7 297 16 344 14 28 19 50 13 56 -9 9 -623
-223 -697 -264 -62 -35 -81 -68 -81 -140 0 -53 11 -88 74 -245 85 -213 94
-254 61 -272 -34 -18 -62 17 -114 147 -24 62 -63 139 -87 173 -40 58 -48 63
-218 151 -212 111 -376 201 -576 319 -82 49 -162 92 -176 95 -14 3 -38 17 -54
29 l-29 24 42 273 c24 151 43 287 42 303 l0 28 -57 -6 c-90 -10 -159 -26 -176
-39 -13 -10 -15 -19 -7 -54 7 -31 5 -75 -10 -175 -25 -167 -28 -178 -42 -178
-6 0 -33 14 -60 31 -59 38 -58 32 -19 294 23 147 27 193 17 202 -9 10 -30 10
-101 -2 -152 -26 -138 -17 -131 -84 7 -62 -8 -189 -25 -206 -11 -12 -68 17
-100 51 l-22 24 22 151 c25 171 25 172 -44 163 -75 -10 -150 -26 -168 -36 -16
-8 -17 -17 -11 -64 9 -79 -9 -80 -93 -6 -37 34 -141 121 -229 194 -89 73 -208
174 -265 225 -57 50 -124 106 -149 125 -25 19 -46 42 -48 51 -5 25 153 508
194 594 26 56 45 79 84 108 27 20 50 40 50 45 0 10 -25 20 -50 20 -29 0 -31
13 -13 84 11 42 14 69 8 75 -6 5 -62 12 -126 15 -90 6 -118 4 -126 -6z m-133
-393 c0 -15 -103 -301 -111 -310 -6 -5 -24 6 -50 30 -38 37 -40 43 -35 81 8
60 45 154 72 181 18 18 34 23 74 23 27 0 50 -2 50 -5z m3378 -2355 c1 -144 -1
-228 -8 -241 -13 -24 -68 -59 -92 -59 -15 0 -18 9 -18 58 0 31 -5 123 -12 204
-14 177 -7 206 65 238 23 11 47 20 52 20 6 0 11 -82 13 -220z"/>
<path d="M19508 3693 c-7 -9 -14 -55 -16 -112 -6 -131 -7 -130 146 -106 64 10
121 22 125 26 13 10 -11 115 -31 140 -12 14 -47 28 -115 44 -85 20 -98 21
-109 8z"/>
<path d="M9042 3344 c-50 -25 -120 -50 -155 -56 -91 -16 -90 -14 -71 -149 31
-222 35 -208 -195 -839 -175 -482 -199 -556 -187 -569 21 -20 302 -120 556
-197 575 -174 1059 -282 1655 -370 309 -45 317 -47 366 -91 45 -41 124 -156
141 -205 6 -18 16 -39 24 -47 14 -16 6 -21 223 152 l123 100 52 -7 c28 -4 278
-9 556 -11 278 -3 533 -7 567 -10 43 -4 74 -1 99 10 20 8 98 19 177 25 152 12
210 27 251 65 35 32 33 40 -13 53 -52 16 -88 46 -100 85 -5 17 -15 88 -20 157
-10 115 -83 1116 -96 1325 -8 115 -12 135 -29 135 -8 0 -45 -36 -82 -80 -63
-73 -163 -160 -185 -160 -19 0 -7 -29 42 -111 67 -110 105 -185 117 -234 6
-22 25 -241 43 -487 34 -475 34 -488 -12 -516 -18 -12 -165 -32 -259 -36 l-35
-1 -131 260 c-156 311 -171 355 -157 440 6 33 7 66 4 73 -5 9 -99 -77 -283
-258 -311 -304 -323 -321 -299 -409 29 -100 36 -91 -72 -91 -64 0 -98 4 -104
13 -6 6 -43 98 -84 202 -71 182 -74 194 -74 273 0 45 -4 82 -9 82 -5 0 -51
-34 -102 -75 -176 -142 -184 -188 -80 -467 63 -171 80 -248 56 -263 -16 -10
-33 5 -90 75 -73 89 -170 189 -200 205 -14 7 -50 16 -80 20 -72 9 -591 92
-700 111 -180 33 -585 126 -795 184 -254 70 -567 166 -608 187 -37 18 -87 122
-87 179 0 28 73 243 235 693 129 358 235 658 235 666 0 24 -28 17 -128 -31z
m3119 -1791 c6 -21 34 -82 60 -135 66 -131 65 -138 -10 -138 l-59 0 -31 56
c-46 85 -64 140 -57 170 7 28 57 84 74 84 6 0 16 -17 23 -37z"/>
<path d="M7955 3290 c-125 -45 -134 -70 -60 -167 19 -25 42 -63 52 -84 21 -48
38 -49 95 -6 69 53 74 71 46 185 -16 66 -28 98 -38 99 -8 1 -51 -11 -95 -27z"/>
<path d="M13328 2872 c-54 -75 -111 -134 -172 -178 l-28 -20 90 -136 c90 -136
116 -194 127 -278 25 -205 118 -864 127 -900 34 -140 104 -190 269 -190 75 0
210 20 277 41 22 7 32 16 30 27 -3 17 -20 22 -145 42 -86 14 -177 56 -220 101
-57 60 -71 109 -113 406 -38 261 -160 1146 -160 1158 0 3 -6 5 -13 5 -8 0 -39
-35 -69 -78z"/>
<path d="M11204 2257 c-57 -41 -101 -82 -113 -104 -16 -32 -1 -56 62 -97 29
-18 65 -47 81 -65 17 -17 37 -31 45 -31 23 0 85 99 85 135 -1 38 -90 185 -113
185 -9 -1 -30 -11 -47 -23z"/>
</g>
</svg>
